# xmcd
#
# Track frame offsets: 
#        182
#        20182
#        38282
#        61397
#        77090
#        95070
#        117837
#        137165
#        157170
#        177910
#        197087
#        219682
#        241042
#
# Disc length: 3529 seconds
#
# Revision: 3
# Processed by: cddbd v1.5.1PL0 Copyright (c) Steve Scherf et al.
# Submitted via: ExactAudioCopy v0.95a5
#
DISCID=b30dc70d
DTITLE=Cheryl "Pepsii" Riley - All That
DYEAR=1993
DGENRE=R&B
TTITLE0=Gimme
TTITLE1=Love Of My Life
TTITLE2=Guess I'm In Love
TTITLE3=Everything I Need (I Found It In You)
TTITLE4=So Good
TTITLE5=I'll Be There (Whenever U Need Me)
TTITLE6=I'll Carry On
TTITLE7=Forgive And Forget
TTITLE8=Someday You'll Know
TTITLE9=My House Of Love
TTITLE10=Stranger In My House
TTITLE11=I Kinda Knew All Along
TTITLE12=Stephanie
EXTD=more info - MillenniumMusicProjectFormat - SYNTAX=SongTitle{Subtit
EXTD=le}[miscInfo](Lyricist;Composer;Date,Artist,Location,State,Countr
EXTD=y)
EXTT0=
EXTT1=
EXTT2=
EXTT3=
EXTT4=
EXTT5=
EXTT6=
EXTT7=
EXTT8=
EXTT9=
EXTT10=
EXTT11=
EXTT12=
PLAYORDER=
